<svg xmlns="http://www.w3.org/2000/svg" xmlns:xlink="http://www.w3.org/1999/xlink" width="80" height="80" viewBox="0 0 80 80"><defs><clipPath id="a"><rect width="80" height="80" fill="#4ea55e"/></clipPath></defs><g transform="translate(0 0)"><path d="M0,0V35.135L27.206,53.964,40,30.41l12.8,8.123L80,10.045V0Z" fill="#4ea55e"/><g transform="translate(0 0.001)"><g transform="translate(0 0)" clip-path="url(#a)"><path d="M42.1,44.574c-1.607,0-1.823.528-1.823,1.042a.921.921,0,0,0,1.044.935c1.312,0,1.6-.722,1.619-1.977Z" transform="translate(27.845 30.813)" fill="#4ea55e"/><path d="M28.034,43.083c-.321,0-1.255,0-1.542,1.448h3.017a1.473,1.473,0,0,0-1.475-1.448" transform="translate(18.314 29.782)" fill="#4ea55e"/><path d="M15.3,43.083c-1.559,0-1.679,1.717-1.679,2.243,0,1.082.533,2.244,1.7,2.244,1.246,0,1.691-1.159,1.691-2.244,0-1.035-.448-2.243-1.715-2.243" transform="translate(9.416 29.782)" fill="#4ea55e"/><path d="M52.8,47.648,40,37.155,27.2,55.1,0,23.7v41.69H80V21.14ZM18.743,63.835H17.491l-.069-.247c-.375-1.346-1.216-4.451-1.686-6.276-.364,1.353-.937,3.325-1.392,4.891l-.472,1.632H12.627l-2.518-9.084h1.375l.068.249c.421,1.5,1.257,4.539,1.725,6.371.186-.67.43-1.524.692-2.444.4-1.416.832-2.919,1.1-3.922l.068-.254h1.24l.433,1.608c.448,1.652,1.006,3.719,1.353,5.043.276-.964.666-2.246,1.049-3.5.337-1.108.658-2.168.868-2.9l.071-.245h1.373Zm5.948.145c-1.747,0-2.968-1.434-2.968-3.486,0-2.085,1.216-3.486,3.029-3.486,1.789,0,2.992,1.4,2.992,3.474,0,2.06-1.255,3.5-3.053,3.5m9.875-.145H33.29V59.7c0-1.28-.658-1.427-1.152-1.427-1.309,0-1.583,1.174-1.583,2.16v3.4H29.278V59c0-.526,0-1.027-.012-1.505l-.008-.347h1.235s.044.374.047.426a2.391,2.391,0,0,1,1.671-.57,2.283,2.283,0,0,1,2.356,2.6Zm6.138,0s-.054-.335-.057-.374a2.624,2.624,0,0,1-1.71.519c-1.7,0-2.836-1.372-2.836-3.413,0-2.1,1.23-3.558,2.992-3.558a2.8,2.8,0,0,1,1.524.375V54.3h1.277v7.464c0,.573,0,1.125.012,1.722l.007.345Zm8.431-3.244-.024.315H44.733c.1,1.14.7,1.833,1.591,1.833a1.351,1.351,0,0,0,1.419-.927l.09-.2h1.3l-.14.441A2.639,2.639,0,0,1,46.3,63.98c-2.121,0-2.872-1.854-2.872-3.438,0-2.112,1.182-3.533,2.945-3.533a2.788,2.788,0,0,1,2.775,3.066c0,.174,0,.352-.012.516m4.89-2.28-.316.02a1.841,1.841,0,0,0-1.774,2.041v3.462H50.657v-4.71c0-.7-.012-1.972-.012-1.972h1.246s.027.47.03.589a2.674,2.674,0,0,1,1.747-.732l.355-.017Zm9.941,5.524H62.713l-.069-.247c-.374-1.345-1.214-4.45-1.686-6.275-.36,1.336-.923,3.276-1.372,4.818l-.492,1.7H57.849L55.33,54.751h1.375l.069.249c.438,1.561,1.26,4.561,1.723,6.371.186-.668.43-1.52.69-2.437.4-1.417.834-2.924,1.1-3.929l.066-.254H61.6l.468,1.735c.435,1.608.978,3.616,1.318,4.917.276-.962.666-2.246,1.049-3.5.335-1.108.658-2.168.868-2.9l.071-.245h1.373Zm7.012,0L70.9,63.6a1.666,1.666,0,0,1-.042-.166,2.607,2.607,0,0,1-1.713.543,2.119,2.119,0,0,1-2.332-2.139c0-1.032.548-2.261,3.159-2.261h.8V59.3c0-.555-.145-1.066-1.211-1.066-.962,0-1.072.406-1.2.878l-.068.252H67.061l.042-.375a2.208,2.208,0,0,1,2.474-1.984c2.046,0,2.474,1.216,2.474,2.236v3.11a6.53,6.53,0,0,0,.079,1.081l.073.4Zm4.379,0H74.08V54.3h1.277Zm3.29,0H77.37V54.3h1.277Z" transform="translate(0 14.613)" fill="#4ea55e"/><path d="M23.777,43.083c-1.037,0-1.656.856-1.656,2.29,0,1.336.607,2.2,1.548,2.2,1.208,0,1.679-.668,1.679-2.388,0-1.57-.4-2.1-1.571-2.1" transform="translate(15.292 29.782)" fill="#4ea55e"/></g></g></g></svg>