<svg xmlns="http://www.w3.org/2000/svg" xmlns:xlink="http://www.w3.org/1999/xlink" width="194" height="40" viewBox="0 0 194 40"><defs><clipPath id="a"><rect width="194" height="40" transform="translate(0 0)" fill="#fff"/></clipPath></defs><g transform="translate(0 0)"><path d="M0,0V17.56l13.6,9.409L19.991,15.2l6.395,4.06L39.982,5.02V0Z" transform="translate(0)" fill="#fff"/><path d="M26.386,35.595,19.991,30.35,13.6,39.319,0,23.623V44.459H39.983V22.347Z" transform="translate(0 -4.477)" fill="#fff"/><g transform="translate(0 0)"><g clip-path="url(#a)"><path d="M69.581,37.21,64.706,19.615h1.407c1.181,4.222,3.845,13.95,4.248,16.011h.025c.326-1.634,3.217-11.361,4.448-16.011h1.508c1.156,4.3,3.971,14.629,4.248,15.986h.025c.553-2.488,3.493-11.788,4.7-15.986H86.7L81.319,37.21H79.76c-1.156-4.148-3.9-14.327-4.2-15.835h-.026c-.453,2.288-3.167,11.462-4.424,15.835Z" transform="translate(-12.964 -3.93)" fill="#fff"/><path d="M106,32.085c0,3.493-1.935,6.61-5.68,6.61-3.393,0-5.5-2.789-5.5-6.585,0-3.6,1.986-6.585,5.63-6.585,3.343,0,5.554,2.614,5.554,6.56m-9.852.025c0,2.991,1.608,5.4,4.273,5.4,2.714,0,4.248-2.236,4.248-5.4,0-2.966-1.508-5.4-4.3-5.4-2.865,0-4.222,2.388-4.222,5.4" transform="translate(-18.997 -5.114)" fill="#fff"/><path d="M114.58,28.993c0-1.106,0-2.161-.026-3.167h1.232c.05.4.075,2.036.05,2.388a4.1,4.1,0,0,1,4.172-2.689c2.237,0,4.222,1.257,4.222,4.725v8.144h-1.257V30.451c0-2.237-.93-3.7-3.116-3.7-2.991,0-4.021,2.488-4.021,5.228v6.41H114.58Z" transform="translate(-22.951 -5.114)" fill="#fff"/><path d="M143.144,18.451V33.356c0,1.207,0,2.363.026,3.619h-1.207c-.05-.3-.075-1.483-.075-2.111-.629,1.533-2.036,2.413-4.222,2.413-3.267,0-5.228-2.664-5.228-6.435,0-3.87,2.137-6.735,5.554-6.735,2.513,0,3.518,1.08,3.9,1.885V18.451ZM133.77,30.793c0,3.443,1.784,5.3,3.946,5.3,3.317,0,4.221-2.287,4.221-5.705,0-3.243-.779-5.1-4-5.1-2.488,0-4.172,1.986-4.172,5.5" transform="translate(-26.535 -3.697)" fill="#fff"/><path d="M152.892,32.26c.025,3.243,1.658,5.254,4.071,5.254a3.538,3.538,0,0,0,3.619-2.363h1.282a4.818,4.818,0,0,1-4.951,3.544c-3.821,0-5.3-3.293-5.3-6.485,0-3.594,1.784-6.686,5.454-6.686,3.87,0,5.1,3.343,5.1,5.705,0,.352,0,.7-.025,1.031Zm7.967-1.106c-.026-2.488-1.383-4.448-3.845-4.448-2.588,0-3.77,1.81-4.046,4.448Z" transform="translate(-30.376 -5.114)" fill="#fff"/><path d="M170.525,29.245c0-2.113-.026-3.016-.026-3.418h1.232c.025.4.05,1.206.05,2.815a4.762,4.762,0,0,1,4.372-3.117v1.358c-2.613.175-4.372,1.986-4.372,4.976v6.535h-1.257Z" transform="translate(-34.16 -5.114)" fill="#fff"/><path d="M187.916,37.21l-4.875-17.595h1.407c1.18,4.222,3.845,13.95,4.247,16.011h.026c.326-1.634,3.217-11.361,4.448-16.011h1.507c1.156,4.3,3.971,14.629,4.248,15.986h.025c.553-2.488,3.494-11.788,4.7-15.986h1.382L199.654,37.21H198.1c-1.156-4.148-3.9-14.327-4.2-15.835h-.026c-.452,2.288-3.167,11.462-4.423,15.835Z" transform="translate(-36.673 -3.93)" fill="#fff"/><path d="M222.355,36a14.4,14.4,0,0,0,.176,2.389h-1.207a8.224,8.224,0,0,1-.225-1.936c-.428.93-1.534,2.237-4.122,2.237-2.915,0-4.172-1.886-4.172-3.77,0-2.765,2.136-4.022,5.906-4.022H221.1V29.621c0-1.256-.377-2.94-3.243-2.94-2.538,0-2.915,1.332-3.191,2.362h-1.257c.151-1.382,1.005-3.518,4.474-3.518,2.864,0,4.473,1.207,4.473,3.971Zm-1.231-4.021h-2.463c-2.79,0-4.524.729-4.524,2.891a2.625,2.625,0,0,0,2.89,2.664c3.594,0,4.1-2.388,4.1-5.1Z" transform="translate(-42.637 -5.114)" fill="#fff"/><rect width="1.257" height="18.525" transform="translate(185.374 14.755)" fill="#fff"/><rect width="1.256" height="18.525" transform="translate(192.26 14.755)" fill="#fff"/></g></g></g></svg>