<svg xmlns="http://www.w3.org/2000/svg" xmlns:xlink="http://www.w3.org/1999/xlink" width="76" height="132" viewBox="0 0 76 132"><defs><clipPath id="a"><rect width="76" height="132" transform="translate(530 900)" fill="#ededed" stroke="#707070" stroke-width="1"/></clipPath><clipPath id="b"><rect width="87.543" height="140.838" fill="none"/></clipPath></defs><g transform="translate(-530 -900)" clip-path="url(#a)"><g transform="translate(530.116 900.162)" clip-path="url(#b)"><path d="M75.207,4.647h0a27.677,27.677,0,0,0-38.389,7.688L16.008,43.567A27.694,27.694,0,0,0,18.321,77.28L4.649,97.8a27.684,27.684,0,1,0,46.077,30.7l20.81-31.232a27.7,27.7,0,0,0-2.314-33.712L82.894,43.036A27.684,27.684,0,0,0,75.207,4.647m-21.9,61.9-.864,1.3a16.1,16.1,0,0,1-18.211,6.44l.864-1.3a16.094,16.094,0,0,1,13.425-7.174h0a15.952,15.952,0,0,1,4.785.735m8.588,24.3-20.81,31.231a16.1,16.1,0,0,1-26.8-17.856l13.373-20.07a27.673,27.673,0,0,0,34.424-9.884L62.4,73.8a16.119,16.119,0,0,1-.5,17.046M73.255,36.613,59.883,56.682a27.673,27.673,0,0,0-34.424,9.884l-.313.469a16.118,16.118,0,0,1,.5-17.046l20.81-31.231a16.094,16.094,0,0,1,13.425-7.176h0A16.1,16.1,0,0,1,73.255,36.614" transform="translate(0 0.001)" fill="#b9ddc1"/></g></g></svg>