<svg xmlns="http://www.w3.org/2000/svg" xmlns:xlink="http://www.w3.org/1999/xlink" width="179" height="126" viewBox="0 0 179 126"><defs><clipPath id="a"><rect width="179" height="126" transform="translate(239 806)" fill="none"/></clipPath><clipPath id="b"><rect width="211.229" height="137.852" fill="#b9ddc1"/></clipPath></defs><g transform="translate(-239 -806)" clip-path="url(#a)"><g transform="translate(239.5 806.148)" clip-path="url(#b)"><path d="M63.9,100.767a5.133,5.133,0,0,1,2.441,4.451,8.4,8.4,0,0,1-.718,3.159c-1.005,2.01-2.728,3.59-4.882,3.59a5.075,5.075,0,0,1-2.728-.862L5.313,79.228C1.724,77.217,0,75.207,0,71.33,0,67.309,1.724,65.3,5.457,63l52.7-31.448a5.015,5.015,0,0,1,2.585-.861,5.64,5.64,0,0,1,4.882,3.59,6.67,6.67,0,0,1,.861,3.3A4.629,4.629,0,0,1,63.9,41.894L13.785,71.186Z" transform="translate(0 2.766)" fill="#b9ddc1"/><path d="M80.642,134.262c-.861,2.441-2.441,3.59-4.6,3.59a6.656,6.656,0,0,1-2.728-.574c-2.585-1.005-4.164-2.441-4.164-4.595a5.763,5.763,0,0,1,.431-2.154L117.977,3.59A5.208,5.208,0,0,1,123,0a8.13,8.13,0,0,1,2.584.431c2.441.861,3.877,2.585,3.877,4.739a7.141,7.141,0,0,1-.431,2.3Z" transform="translate(6.233)" fill="#b9ddc1"/><path d="M135.361,41.893a4.982,4.982,0,0,1-2.585-4.452,8.4,8.4,0,0,1,.717-3.158c.862-1.867,2.729-3.59,4.882-3.59a5.077,5.077,0,0,1,2.729.862L193.8,63c3.59,2.3,5.456,4.308,5.456,8.329,0,3.877-1.867,5.887-5.313,7.9l-52.843,31.879a4.635,4.635,0,0,1-2.585.861c-2.3,0-4.021-1.58-5.025-3.59a8.4,8.4,0,0,1-.718-3.159,4.981,4.981,0,0,1,2.585-4.451l50.114-29.58Z" transform="translate(11.968 2.766)" fill="#b9ddc1"/></g></g></svg>