<svg xmlns="http://www.w3.org/2000/svg" xmlns:xlink="http://www.w3.org/1999/xlink" width="125" height="141" viewBox="0 0 125 141"><defs><clipPath id="a"><rect width="125" height="141" transform="translate(252 891)" fill="#ededed" stroke="#707070" stroke-width="1"/></clipPath><clipPath id="b"><rect width="154.775" height="172.798" fill="none"/></clipPath></defs><g transform="translate(-252 -891)" clip-path="url(#a)"><g transform="translate(252.295 870.202)" clip-path="url(#b)"><path d="M44.692,76.56S15.222,66.841,3.308,93.176,16.162,128.6,7.384,143.965s-4.7,41.07,21.946,38.876,86.216-11.286,84.649-38.876-14.735-52.19-42.011-59.8c0,0-17.243-8.548-27.276-7.608" transform="translate(0 -10.174)" fill="#fff"/><path d="M158.873,2.483l-2.32-1.32a8.881,8.881,0,0,0-12.11,3.328L100.4,81.919a8.875,8.875,0,0,0-.077,8.642c-2.257.755-6.145,2.882-10.462,8.891-6.79,9.448-7.1,16.961-12,21.092-4.462,3.764-9.973,5.654-14.707,5.092,3.588.6,13.21,2.077,16.193,1.257,3.693-1.015,13.188-5.261,14.96-10.617s9.858-8.12,13.177-12.462c2.545-3.329,3.279-5.523,3.386-7.315a8.872,8.872,0,0,0,7.288-4.478L162.2,14.594a8.881,8.881,0,0,0-3.329-12.11" transform="translate(-8.59 0)" fill="#b9ddc1"/><path d="M62.941,145.376c-.853-.142-1.367-.235-1.367-.235a12.882,12.882,0,0,0,1.367.235" transform="translate(-8.375 -19.74)" fill="#e5e5e5"/></g></g></svg>