<svg xmlns="http://www.w3.org/2000/svg" xmlns:xlink="http://www.w3.org/1999/xlink" width="107" height="100" viewBox="0 0 107 100"><defs><clipPath id="a"><rect width="107" height="100" transform="translate(703 949)" fill="#b9ddc1"/></clipPath></defs><g transform="translate(-703 -949)" clip-path="url(#a)"><path d="M88.763,0A10.436,10.436,0,0,0,83.19,1.607C60.309,15.734,64.016,16.344,51.177,20.319c-6.5,2.013-9.008,2.341-13.4,2.341-2.115,0-4.663-.074-8.3-.074s-8.583.078-15.282.4c-26.33,1.265-11.067,87.657,5.882,87.657a5.11,5.11,0,0,0,1.025-.1c17.346-3.615,20.675-45.1,20.675-45.1l21.339-6.611,21.339-6.611s21.436,26.45,37.632,26.45A12.671,12.671,0,0,0,127,77.726C142.079,71.428,111.547,0,88.763,0ZM47.986,46.811l8.772-2.719a1.728,1.728,0,0,1,2.147,1.131l.231.748a1.707,1.707,0,0,1-1.127,2.138h0l-8.777,2.719a1.739,1.739,0,0,1-.508.078,1.71,1.71,0,0,1-1.63-1.2l-.231-.748a1.711,1.711,0,0,1,1.127-2.138Zm14.345-1.842-.231-.743a1.713,1.713,0,0,1,1.127-2.138L72,39.368a1.713,1.713,0,0,1,2.138,1.127l.231.748a1.713,1.713,0,0,1-1.127,2.138h0L64.469,46.1a1.739,1.739,0,0,1-.508.078h0A1.712,1.712,0,0,1,62.331,44.969ZM89.746,24.193a3.788,3.788,0,1,1,2.664-3.624,3.812,3.812,0,0,1-2.664,3.624Zm2.849,5.434a3.788,3.788,0,1,1-3.781,3.8A3.792,3.792,0,0,1,92.595,29.627Zm.665-4.612a3.779,3.779,0,1,1,4.894,3.61,3.843,3.843,0,0,1-1.122.171,3.779,3.779,0,0,1-3.777-3.781Zm-5.277,3.98a3.781,3.781,0,0,1-2.659,3.61,3.843,3.843,0,0,1-1.122.171,3.781,3.781,0,1,1,3.781-3.781ZM31.352,48.408a8.405,8.405,0,1,1-8.407-8.4A8.4,8.4,0,0,1,31.352,48.408Z" transform="translate(702.826 949)" fill="#b9ddc1"/></g></svg>